<?xml version="1.0"?>
<svg xmlns="http://www.w3.org/2000/svg" xmlns:xlink="http://www.w3.org/1999/xlink" version="1.1" id="Layer_1" x="0px" y="0px" viewBox="0 0 512 512" style="enable-background:new 0 0 512 512;" xml:space="preserve" width="512px" height="512px" class=""><g transform="matrix(-1 0 0 1 512 0)"><polygon style="fill:#57565C;" points="318.234,355.61 196.397,284.807 185.564,294.046 209.665,394.615 151.169,428.387   151.206,441.197 273.042,512 345.665,470.071 " data-original="#57565C" class=""/><g style="enable-background:new    ;">
	<polygon style="fill:#3E3D43;" points="273.042,512 151.206,441.197 151.169,428.387 273.005,499.191  " data-original="#3E3D43"/>
	<polygon style="fill:#2E2E30;" points="331.501,465.418 209.665,394.615 185.564,294.046 307.399,364.849  " data-original="#2E2E30"/>
	<polygon style="fill:#77767E;" points="307.399,364.849 185.564,294.046 196.397,284.807 318.233,355.61  " data-original="#77767E"/>
	<polygon style="fill:#1D1D1F;" points="318.233,355.61 345.664,470.071 273.042,512 273.005,499.191 331.501,465.418    307.399,364.849  " data-original="#1D1D1F" class=""/>
</g><polygon style="fill:#C6C5CB;" points="424.162,169.572 116.91,0 87.838,6.366 87.841,6.368 87.838,271.821 87.838,271.821   87.838,307.434 400.293,492.232 400.296,205.064 400.296,205.064 400.296,177.758 156.706,44.141 400.38,177.797 405.139,176.152   400.296,177.844 400.299,492.114 423.933,479.374 423.969,169.639 " data-original="#C6C5CB"/><polygon style="fill:#ACABB1;" points="400.296,177.844 400.299,492.114 423.933,479.374 423.969,169.572 " data-original="#ACABB1"/><polygon style="fill:#D8D8DA;" points="116.91,0 87.838,6.366 400.38,177.797 424.162,169.572 " data-original="#D8D8DA"/><polygon style="fill:#CCCCCD;" points="116.91,0 87.838,6.366 400.38,177.797 424.162,169.572 " data-original="#CCCCCD"/><polygon style="fill:#1D1D1F;" points="400.293,451.997 87.838,271.821 87.841,6.366 400.296,177.758 " data-original="#1D1D1F" class=""/><path style="fill:#57565C;" d="M192.673,245.212l0.372-131.361L347.23,202.87l-0.372,131.361L192.673,245.212 M386.426,194.349  L163.114,65.419l-0.641,225.772L385.785,420.12L386.426,194.349" data-original="#57565C" class=""/><path style="fill:#77767E;" d="M143.876,239.69l-6.924-3.998l-0.022,7.957l-6.932-4.002l-0.023,7.965l13.856,8L143.876,239.69   M112.953,229.806l0.078-27.543l23.976,13.843l-0.039,13.776l11.988,6.921l-0.078,27.543l-23.976-13.843l0.039-13.776  L112.953,229.806 M105.76,185.957l0.075-26.569l23.97,13.838l-0.075,26.569L105.76,185.957 M132.365,201.317l0.075-26.569  l23.97,13.838l-0.075,26.569L132.365,201.317 M105.844,156.367l0.075-26.569l23.97,13.838l-0.075,26.569L105.844,156.367   M132.448,171.727l0.075-26.569l23.97,13.838l-0.075,26.569L132.448,171.727 M105.928,126.769l0.075-26.562l23.97,13.838  l-0.075,26.562L105.928,126.769 M132.533,142.129l0.075-26.562l23.97,13.838l-0.075,26.562L132.533,142.129 M106.012,97.179  l0.075-26.569l23.97,13.838l-0.075,26.569L106.012,97.179 M132.617,112.54l0.075-26.569l23.97,13.839l-0.075,26.569L132.617,112.54   M106.095,67.589l0.075-26.569l23.97,13.838l-0.075,26.569L106.095,67.589 M132.7,82.95l0.075-26.569l23.97,13.838l-0.075,26.569  L132.7,82.95 M163.114,65.419L99.85,28.894L99.21,254.665l63.263,36.525L163.114,65.419" data-original="#77767E"/><g>
	<polyline style="fill:#898890;" points="130.14,54.859 106.171,41.02 106.095,67.589 130.065,81.429 130.14,54.859  " data-original="#898890"/>
	<polyline style="fill:#898890;" points="156.745,70.219 132.775,56.381 132.7,82.95 156.67,96.789 156.745,70.219  " data-original="#898890"/>
	<polyline style="fill:#898890;" points="130.057,84.448 106.087,70.61 106.012,97.179 129.981,111.019 130.057,84.448  " data-original="#898890"/>
	<polyline style="fill:#898890;" points="156.661,99.809 132.692,85.97 132.617,112.54 156.586,126.379 156.661,99.809  " data-original="#898890"/>
	<polyline style="fill:#898890;" points="129.973,114.046 106.003,100.207 105.928,126.769 129.898,140.608 129.973,114.046  " data-original="#898890"/>
	<polyline style="fill:#898890;" points="156.578,129.407 132.608,115.568 132.533,142.129 156.503,155.969 156.578,129.407  " data-original="#898890"/>
	<polyline style="fill:#898890;" points="129.889,143.636 105.919,129.797 105.844,156.367 129.813,170.205 129.889,143.636  " data-original="#898890"/>
	<polyline style="fill:#898890;" points="156.493,158.997 132.524,145.157 132.448,171.727 156.418,185.566 156.493,158.997  " data-original="#898890"/>
	<polyline style="fill:#898890;" points="129.805,173.226 105.835,159.387 105.76,185.957 129.73,199.795 129.805,173.226  " data-original="#898890"/>
	<polyline style="fill:#898890;" points="156.41,188.587 132.44,174.747 132.365,201.317 156.334,215.156 156.41,188.587  " data-original="#898890"/>
</g><polyline style="fill:#3E3D43;" points="148.956,236.802 136.968,229.881 136.952,235.692 143.876,239.69 143.831,255.612   129.975,247.611 129.997,239.647 124.941,236.728 124.902,250.502 148.878,264.345 148.956,236.802 " data-original="#3E3D43"/><g>
	<polyline style="fill:#FFFFFF;" points="137.007,216.106 113.03,202.263 112.953,229.806 124.941,236.728 129.997,239.647    136.929,243.649 136.952,235.692 136.968,229.881 137.007,216.106  " data-original="#FFFFFF" class=""/>
	<path style="fill:#FFFFFF;" d="M249.976,251.352l0.009-3.403l7.945,4.587l-0.009,3.403L249.976,251.352 M265.866,260.527   l0.009-3.403l7.953,4.591l-0.009,3.403L265.866,260.527 M281.764,269.705l0.009-3.403l7.953,4.591l-0.009,3.403L281.764,269.705    M236.138,227.392l0.026-9.13l2.969,1.714l-0.026,9.13L236.138,227.392 M300.676,264.653l0.026-9.13l2.962,1.71l-0.026,9.13   L300.676,264.653 M236.19,209.125l0.026-9.13l2.969,1.714l-0.026,9.13L236.19,209.125 M300.727,246.386l0.026-9.13l2.962,1.71   l-0.026,9.13L300.727,246.386 M236.242,190.857l0.026-9.13l2.969,1.714l-0.026,9.13L236.242,190.857 M300.779,228.118l0.026-9.13   l2.962,1.71l-0.026,9.13L300.779,228.118 M250.186,177.202l0.009-3.403l7.945,4.587l-0.009,3.403L250.186,177.202 M266.076,186.376   l0.009-3.403l7.952,4.591l-0.009,3.403L266.076,186.376 M281.974,195.554l0.009-3.403l7.953,4.591l-0.009,3.403L281.974,195.554    M347.231,202.87l-154.185-89.019l-0.372,131.361l154.185,89.019L347.231,202.87" data-original="#FFFFFF" class=""/>
</g><g>
	<path style="fill:#1D1D1F;" d="M257.93,252.536l-7.945-4.587l-0.009,3.403l7.945,4.587L257.93,252.536 M273.828,261.714   l-7.953-4.591l-0.009,3.403l7.953,4.591L273.828,261.714 M289.726,270.893l-7.953-4.591l-0.009,3.403l7.953,4.591L289.726,270.893" data-original="#1D1D1F" class=""/>
	<path style="fill:#1D1D1F;" d="M239.133,219.976l-2.969-1.714l-0.026,9.13l2.969,1.714L239.133,219.976 M239.184,201.708   l-2.969-1.714l-0.026,9.13l2.969,1.714L239.184,201.708 M239.236,183.441l-2.969-1.714l-0.026,9.13l2.969,1.714L239.236,183.441" data-original="#1D1D1F" class=""/>
	<path style="fill:#1D1D1F;" d="M258.141,178.386l-7.945-4.587l-0.009,3.403l7.945,4.587L258.141,178.386 M274.038,187.564   l-7.952-4.591l-0.009,3.403l7.953,4.591L274.038,187.564 M289.936,196.742l-7.953-4.591l-0.009,3.403l7.953,4.591L289.936,196.742" data-original="#1D1D1F" class=""/>
	<path style="fill:#1D1D1F;" d="M303.664,257.233l-2.962-1.71l-0.026,9.13l2.962,1.71L303.664,257.233 M303.715,238.966l-2.962-1.71   l-0.026,9.13l2.962,1.71L303.715,238.966 M303.767,220.698l-2.962-1.71l-0.026,9.13l2.962,1.71L303.767,220.698" data-original="#1D1D1F" class=""/>
</g><g>
	<polyline style="fill:#010101" points="306.027,203.491 298.65,199.231 298.642,201.768 298.632,205.172 298.625,207.709    300.833,208.984 303.796,210.694 306.003,211.969 306.027,203.491  " data-original="#010101" class="active-path"/>
	<polyline style="fill:#010101" points="305.817,277.642 303.61,276.366 300.647,274.657 298.438,273.381 298.431,275.919    298.422,279.322 298.414,281.86 302.943,284.475 301.531,278.737 305.803,282.845 305.817,277.642  " data-original="#010101" class="active-path"/>
	<polyline style="fill:#010101" points="241.286,240.385 239.079,239.11 236.11,237.396 233.901,236.121 233.877,244.599    241.262,248.863 241.27,246.326 241.279,242.922 241.286,240.385  " data-original="#010101" class="active-path"/>
	<polyline style="fill:#010101" points="241.496,166.234 234.111,161.97 234.087,170.449 236.296,171.723 239.265,173.437    241.472,174.713 241.48,172.175 241.489,168.772 241.496,166.234  " data-original="#010101" class="active-path"/>
</g><polyline style="fill:#FFFFFF;" points="302.702,280.764 305.939,293.928 307.848,289.679 312.504,290.186 302.702,280.764 " data-original="#FFFFFF" class=""/><path style="fill:#010101" d="M305.939,293.928l-3.237-13.163l9.803,9.422l-4.656-0.508L305.939,293.928 M301.531,278.737  l1.413,5.737l2.921,11.868l2.548-5.677l6.225,0.677l-8.837-8.497L301.531,278.737" data-original="#010101" class="active-path"/></g> </svg>
